<?xml version="1.0" encoding="UTF-8"?>
<svg version="1.1" xmlns="http://www.w3.org/2000/svg" width="400" height="400">
<path d="M0 0 C1.61751295 0.00056537 3.23502641 0.00024511 4.85253906 -0.00088501 C9.20710742 -0.00145463 13.56156372 0.01023589 17.91610622 0.02426291 C22.48046221 0.03683589 27.04482127 0.03794591 31.60919189 0.04031372 C40.23614644 0.0465093 48.8630498 0.06289389 57.48998189 0.0830127 C67.31836101 0.1054318 77.14674269 0.1163802 86.97514105 0.12640357 C107.17779178 0.14726198 127.38039656 0.18240027 147.58300781 0.22705078 C146.6417513 1.33765786 145.69868784 2.44673365 144.75488281 3.55517578 C143.96742676 4.48185059 143.96742676 4.48185059 143.1640625 5.42724609 C141.07760991 7.80237402 138.81778611 9.99227248 136.58300781 12.22705078 C135.92300781 13.21705078 135.26300781 14.20705078 134.58300781 15.22705078 C133.92300781 15.22705078 133.26300781 15.22705078 132.58300781 15.22705078 C132.58300781 15.88705078 132.58300781 16.54705078 132.58300781 17.22705078 C131.92300781 17.22705078 131.26300781 17.22705078 130.58300781 17.22705078 C130.25300781 18.21705078 129.92300781 19.20705078 129.58300781 20.22705078 C128.14550781 21.91455078 128.14550781 21.91455078 126.58300781 23.22705078 C125.92300781 23.22705078 125.26300781 23.22705078 124.58300781 23.22705078 C124.37675781 23.76330078 124.17050781 24.29955078 123.95800781 24.85205078 C122.05050355 28.14683087 119.53481397 30.82068706 116.58300781 33.22705078 C115.92300781 33.22705078 115.26300781 33.22705078 114.58300781 33.22705078 C113.92300781 34.54705078 113.26300781 35.86705078 112.58300781 37.22705078 C111.92300781 37.22705078 111.26300781 37.22705078 110.58300781 37.22705078 C109.92300781 38.54705078 109.26300781 39.86705078 108.58300781 41.22705078 C107.92300781 41.22705078 107.26300781 41.22705078 106.58300781 41.22705078 C106.25300781 42.21705078 105.92300781 43.20705078 105.58300781 44.22705078 C103.53562702 47.07052235 101.92318849 48.94483249 98.3997612 49.68680382 C95.61945796 49.86997629 92.87853139 49.88774451 90.09228516 49.85473633 C88.50835464 49.86564301 88.50835464 49.86564301 86.89242554 49.87677002 C83.40092524 49.89537316 79.91044634 49.879284 76.41894531 49.86376953 C73.98620693 49.87181084 71.55347559 49.88232962 69.12075806 49.8952179 C62.71009335 49.92380118 56.29975156 49.92433849 49.88903809 49.9173584 C39.64995721 49.91004545 29.41098192 49.94152189 19.17198563 49.9798069 C15.60533367 49.98861788 12.03891078 49.98336922 8.47225952 49.97624207 C6.26487161 49.9796297 4.05748423 49.9833799 1.85009766 49.98754883 C0.86891968 49.98185379 -0.1122583 49.97615875 -1.12316895 49.97029114 C-9.49530146 50.00560821 -18.28692554 50.58056456 -25.79199219 54.60205078 C-26.60410156 55.03646484 -27.41621094 55.47087891 -28.25292969 55.91845703 C-30.83006204 57.47683129 -33.1175136 59.28686572 -35.41699219 61.22705078 C-36.07699219 61.22705078 -36.73699219 61.22705078 -37.41699219 61.22705078 C-37.68898437 61.82388672 -37.96097656 62.42072266 -38.24121094 63.03564453 C-39.38883172 65.17456565 -40.55102567 66.55794021 -42.22949219 68.28955078 C-53.55448317 81.39101093 -51.56782712 98.8390365 -51.54638672 115.07348633 C-51.54774508 116.8212284 -51.54952745 118.56897018 -51.55169678 120.31671143 C-51.55621833 125.02102363 -51.55450374 129.72531368 -51.55131769 134.42962623 C-51.54876783 139.37453755 -51.55113879 144.31944711 -51.55270386 149.26435852 C-51.55451741 157.56157773 -51.55214012 165.85878801 -51.54736328 174.15600586 C-51.54191684 183.72637766 -51.54368938 193.29672817 -51.54918969 202.86709946 C-51.55373761 211.11292251 -51.55436331 219.35873917 -51.55175102 227.60456306 C-51.55019818 232.51700013 -51.54996725 237.42942721 -51.55328751 242.34186363 C-51.55619087 246.95895757 -51.55414548 251.57602422 -51.54839325 256.19311523 C-51.54707906 257.88007881 -51.54743678 259.56704471 -51.54965591 261.25400734 C-51.5711988 279.30418148 -51.08755341 292.34548368 -38.59277344 306.25830078 C-27.94171319 316.80792236 -15.08415698 320.11196528 -0.56111145 320.14242554 C1.29642418 320.12404056 3.15395287 320.10494381 5.01147461 320.08520508 C7.01242954 320.08979021 9.01337944 320.09740092 11.01431274 320.10777283 C16.40080459 320.12671512 21.78627767 320.10231941 27.1726644 320.06853461 C32.83465012 320.03943718 38.49660243 320.0472905 44.15864563 320.05000305 C53.65972568 320.04901612 63.16041329 320.02071201 72.66137695 319.97485352 C83.6190154 319.92220012 94.57616588 319.90818668 105.53391713 319.91588658 C116.11444799 319.92281977 126.69481519 319.90690145 137.27530861 319.87912941 C141.76102553 319.86747703 146.24666576 319.86287858 150.73239708 319.86392784 C156.01945613 319.86380129 161.30607186 319.84329687 166.59300613 319.80753517 C168.52421709 319.79751886 170.45547636 319.79411195 172.38670921 319.79808044 C188.97160024 319.82470432 202.97169038 317.80671235 215.83300781 306.19580078 C224.08309802 297.57070648 228.70163054 287.62522993 228.77246094 275.76586914 C228.78075424 275.01861572 228.78904755 274.2713623 228.79759216 273.50146484 C228.81497945 271.87717224 228.83014988 270.25285475 228.84336853 268.62852287 C228.86456729 266.02894378 228.89159539 263.42948056 228.92004395 260.82997131 C228.97969912 255.27487823 229.031542 249.71972475 229.08300781 244.16455078 C229.20730062 230.96273306 229.34849306 217.76147843 229.54876709 204.56056976 C229.58162288 202.32143469 229.6102878 200.08228016 229.63818359 197.84307861 C229.68822944 194.0341879 229.77280821 190.22659295 229.86425781 186.41845703 C229.87646362 185.33378647 229.88866943 184.24911591 229.90124512 183.13157654 C230.11427119 176.06504341 230.11427119 176.06504341 232.12792969 172.46508789 C234.85779585 169.97655537 237.6155455 167.52847494 240.42166138 165.12619019 C244.11168571 161.88382677 247.53326565 158.37901614 250.98535156 154.88720703 C251.74852188 154.12025009 252.5116922 153.35329315 253.29798889 152.56309509 C255.7079596 150.14101453 258.11462608 147.71569257 260.52050781 145.28955078 C263.71429505 142.06927741 266.91131102 138.85226077 270.11035156 135.63720703 C271.21333839 134.52177269 271.21333839 134.52177269 272.33860779 133.38380432 C273.01343704 132.70567184 273.6882663 132.02753937 274.38354492 131.32885742 C274.97896591 130.72819962 275.5743869 130.12754181 276.18785095 129.50868225 C277.58300781 128.22705078 277.58300781 128.22705078 278.58300781 128.22705078 C278.65330576 148.4209532 278.70609733 168.61483055 278.73844433 188.80883026 C278.75386746 198.1867229 278.77486914 207.5645392 278.80932617 216.94238281 C278.83936878 225.12274274 278.85861585 233.30304734 278.8652733 241.4834609 C278.86916056 245.80891368 278.87819942 250.13420826 278.90019798 254.45960999 C278.92079888 258.54389839 278.92679481 262.62796582 278.92233086 266.71230125 C278.92314565 268.19882095 278.92896914 269.68534927 278.94062424 271.1718235 C279.11749101 294.92594585 272.57714721 315.56861328 257.58300781 334.22705078 C256.79925781 335.23767578 256.01550781 336.24830078 255.20800781 337.28955078 C251.92589614 340.96239003 248.36455732 344.08152057 244.58300781 347.22705078 C243.95007813 347.78263672 243.31714844 348.33822266 242.66503906 348.91064453 C230.72613328 358.90976678 216.56109488 364.59599937 201.58300781 368.22705078 C200.86379591 368.40706225 200.14458401 368.58707373 199.4035778 368.77254009 C195.55105425 369.39334126 191.7355899 369.37509713 187.84451294 369.3742218 C186.96469344 369.37789849 186.08487394 369.38157518 185.17839324 369.38536328 C182.23008826 369.39637648 179.28181855 369.40024001 176.33349609 369.40405273 C174.21919137 369.41031936 172.10488775 369.41696634 169.99058533 369.42396545 C163.0448381 369.44499128 156.0990907 369.45536909 149.15332031 369.46533203 C146.75861474 369.46938067 144.36390929 369.47349763 141.96920395 369.47768211 C130.71328796 369.49673354 119.45737852 369.51096253 108.20144951 369.51929408 C95.22973624 369.52905514 82.25819411 369.55534544 69.2865411 369.59579498 C59.24807092 369.62601787 49.20964961 369.64076896 39.17113483 369.6440751 C33.18189514 369.64641926 27.19283829 369.65529669 21.20364761 369.68053627 C15.56143295 369.70392888 9.91952007 369.70800535 4.27726936 369.69777489 C2.21625702 369.69728207 0.15522925 369.70352674 -1.90573692 369.71733093 C-13.77895451 369.79235003 -24.11104146 369.04133304 -35.41699219 365.22705078 C-36.55815145 364.86835639 -36.55815145 364.86835639 -37.72236443 364.50241566 C-59.80147477 357.26808954 -80.75308162 339.59190342 -91.54653931 319.05839539 C-92.17467897 317.78356378 -92.79781395 316.50625888 -93.41699219 315.22705078 C-93.75133648 314.5536648 -94.08568077 313.88027882 -94.43015671 313.1864872 C-104.23152284 292.37275409 -102.49559236 269.78982324 -102.29400682 247.35652137 C-102.25090676 241.65364832 -102.25258439 235.95076695 -102.24862671 230.24775696 C-102.23580596 220.69186647 -102.19358053 211.13649502 -102.13037109 201.58081055 C-102.04949624 189.33895669 -102.01493455 177.09743829 -101.99575233 164.85534954 C-101.97912463 154.27967724 -101.94469169 143.70407482 -101.90567732 133.12846398 C-101.89759828 130.86942759 -101.8901163 128.61038899 -101.88323259 126.35134864 C-101.8635929 119.91988946 -101.83446025 113.48862774 -101.7895546 107.05729294 C-101.77738187 105.11555446 -101.76844187 103.17379244 -101.76306915 101.23202324 C-101.67555859 72.3060144 -93.31813675 48.63476685 -73.04199219 27.47705078 C-52.41937079 7.79018533 -28.18970317 -0.13941903 0 0 Z " fill="#000000" transform="translate(101.4169921875,26.77294921875)"/>
<path d="M0 0 C5.99634172 2.10808888 10.62491042 8.32136608 15 12.703125 C15.80179688 13.49332031 16.60359375 14.28351562 17.4296875 15.09765625 C21.87318959 19.49147062 26.14657039 23.93553602 30.203125 28.6875 C33.01777317 31.84480099 36.05072282 34.77482619 39.08203125 37.72265625 C41.68315089 40.40853742 42.91239659 42.20870574 43.5703125 45.921875 C42.74794621 51.37427617 39.84612746 53.59638939 35.875 57.203125 C34.53669519 58.46102778 33.20073357 59.72142843 31.8671875 60.984375 C31.21588867 61.59410156 30.56458984 62.20382813 29.89355469 62.83203125 C27.4784795 65.21845933 25.34207054 67.77955872 23.23095703 70.43554688 C22.82474121 70.85384766 22.41852539 71.27214844 22 71.703125 C21.34 71.703125 20.68 71.703125 20 71.703125 C19.76923799 72.25767742 19.53847597 72.81222984 19.30072117 73.38358688 C17.64265038 76.34037616 15.57393081 78.40376064 13.1884613 80.81573486 C12.69490916 81.31734595 12.20135701 81.81895704 11.69284874 82.33576846 C10.03885659 84.01411505 8.37778414 85.68526608 6.71655273 87.35644531 C5.52853955 88.55862922 4.34090123 89.76118367 3.15361023 90.96408081 C-0.74564037 94.91052218 -4.65562827 98.84623692 -8.56640625 102.78125 C-9.9128178 104.13707048 -11.25918643 105.49293357 -12.60551262 106.84883881 C-18.20563112 112.48743913 -23.80837899 118.12340261 -29.41842747 123.75212479 C-37.4565624 131.81708197 -45.47890246 139.89703168 -53.47963673 147.99909902 C-59.10814916 153.69644753 -64.75379255 159.37645163 -70.41252369 165.04378581 C-73.79150137 168.42876908 -77.16256941 171.82083612 -80.51565742 175.23148346 C-83.67016008 178.43931331 -86.84535651 181.6251035 -90.03764153 184.79532242 C-91.20443427 185.9613985 -92.36357473 187.1351907 -93.51426697 188.31715775 C-103.29672865 198.35063142 -103.29672865 198.35063142 -108.99142456 198.60366821 C-112.54851253 198.09488305 -114.78199393 197.0319016 -117.32641602 194.43017578 C-118.40651695 193.35873825 -118.40651695 193.35873825 -119.50843811 192.26565552 C-120.2494426 191.48447357 -120.99044708 190.70329163 -121.75390625 189.8984375 C-122.54022934 189.10412323 -123.32655243 188.30980896 -124.13670349 187.49142456 C-126.63376746 184.95734943 -129.09727937 182.39314726 -131.5625 179.828125 C-133.25388688 178.10873449 -134.94722672 176.3912628 -136.64257812 174.67578125 C-138.24391403 173.04335853 -139.84358394 171.4092995 -141.44140625 169.7734375 C-142.20062881 168.99630402 -142.95985138 168.21917053 -143.74208069 167.41848755 C-144.77962746 166.33759354 -144.77962746 166.33759354 -145.83813477 165.23486328 C-146.7567202 164.28222092 -146.7567202 164.28222092 -147.69386292 163.31033325 C-149 161.703125 -149 161.703125 -149 159.703125 C-149.99 159.373125 -150.98 159.043125 -152 158.703125 C-153.8125 156.015625 -153.8125 156.015625 -155 152.703125 C-153.94081141 147.9809092 -152.20120577 145.46289909 -148.6875 142.203125 C-145.96486888 139.61618771 -143.39057621 137.08905684 -141.0625 134.140625 C-140.0415625 132.9340625 -140.0415625 132.9340625 -139 131.703125 C-138.34 131.703125 -137.68 131.703125 -137 131.703125 C-136.74671936 131.12508244 -136.49343872 130.54703987 -136.23248291 129.95148087 C-134.85399504 127.43677558 -133.30617242 125.75759666 -131.28027344 123.72943115 C-130.50631226 122.94983032 -129.73235107 122.17022949 -128.93493652 121.36700439 C-128.08500122 120.52111755 -127.23506592 119.67523071 -126.359375 118.80371094 C-125.46496704 117.90579834 -124.57055908 117.00788574 -123.64904785 116.08276367 C-121.19923233 113.62383828 -118.74314212 111.17127174 -116.28559875 108.72007275 C-113.71572421 106.15526233 -111.15073355 103.58557523 -108.58496094 101.0166626 C-104.27768071 96.70574525 -99.96620342 92.39905926 -95.65234375 88.09472656 C-90.66003932 83.11331999 -85.67499945 78.12473055 -80.69364548 73.13237548 C-76.41872753 68.84839388 -72.13993981 64.56830671 -67.85786819 60.29147553 C-65.29928314 57.73601349 -62.74208048 55.17920752 -60.18835449 52.61888885 C-57.34480074 49.76850719 -54.49317796 46.92633648 -51.640625 44.08496094 C-50.7906897 43.23097717 -49.94075439 42.37699341 -49.06506348 41.49713135 C-48.29110229 40.72880981 -47.51714111 39.96048828 -46.71972656 39.16888428 C-46.04572815 38.49563992 -45.37172974 37.82239555 -44.67730713 37.12874985 C-43 35.703125 -43 35.703125 -41 35.703125 C-40.690625 34.90648438 -40.690625 34.90648438 -40.375 34.09375 C-38.42038808 30.69539064 -35.77876283 28.19256572 -33 25.453125 C-32.4534375 24.89882812 -31.906875 24.34453125 -31.34375 23.7734375 C-27.2533867 19.703125 -27.2533867 19.703125 -25 19.703125 C-25 19.043125 -25 18.383125 -25 17.703125 C-23.6015625 16.328125 -23.6015625 16.328125 -21.625 14.703125 C-17.19498097 10.95343032 -13.15312113 6.89409434 -9.1015625 2.7421875 C-6.03949615 -0.22881368 -4.25134646 -0.67312986 0 0 Z " fill="#000000" transform="translate(309,48.296875)"/>
<path d="M0 0 C7.55920076 5.53842432 12.78294996 12.06051245 14.4921875 21.421875 C15.55355222 33.95115603 14.30358914 43.02420439 6.16308594 52.90185547 C-4.07892671 64.96902337 -4.07892671 64.96902337 -10.04858398 66.08203125 C-16.47522587 65.92144604 -20.26467804 60.76505144 -24.4765625 56.4453125 C-25.39747681 55.52730865 -26.31839111 54.60930481 -27.26721191 53.66348267 C-29.20968673 51.72376922 -31.13754133 49.77091944 -33.05566406 47.80712891 C-35.51134823 45.2945917 -37.99702391 42.81450167 -40.49394989 40.3430233 C-42.87860218 37.97564479 -45.23912753 35.58486686 -47.6015625 33.1953125 C-48.49516479 32.30758148 -49.38876709 31.41985046 -50.30944824 30.50521851 C-51.12449829 29.66480011 -51.93954834 28.82438171 -52.77929688 27.95849609 C-53.50129272 27.22569427 -54.22328857 26.49289246 -54.96716309 25.73788452 C-56.94930581 22.75819207 -56.90015015 20.93633781 -56.5078125 17.421875 C-51.14760702 6.93451644 -40.8528857 -0.52922669 -30.1953125 -4.953125 C-19.25043025 -6.80818979 -9.51270227 -5.98618647 0 0 Z " fill="#010101" transform="translate(385.5078125,5.578125)"/>
<path d="M0 0 C5.34344125 1.06868825 7.9380826 4.03143568 11.75 7.75 C12.80334841 8.6154271 13.86496294 9.47097092 14.9375 10.3125 C17.92361152 12.90046332 20.26125906 15.68693423 22.75 18.75 C25.11939032 21.18520672 27.53227991 23.5494291 30.03125 25.8515625 C30.8459375 26.62242187 31.660625 27.39328125 32.5 28.1875 C33.27859375 28.90808594 34.0571875 29.62867188 34.859375 30.37109375 C37.177301 33.28765766 37.69247235 35.03467268 37.75 38.75 C36.1853008 42.80155952 34.06249085 44.49786055 30.16748047 46.32421875 C29.51408691 46.60910156 28.86069336 46.89398438 28.1875 47.1875 C27.48512207 47.50460937 26.78274414 47.82171875 26.05908203 48.1484375 C23.30010329 49.37489986 20.52632561 50.56329345 17.75 51.75 C16.41126342 52.32691107 15.07256135 52.90390223 13.73388672 53.48095703 C9.97356332 55.09769458 6.20516744 56.69441816 2.431427 58.27957153 C0.90005327 58.92389657 -0.62985398 59.57171871 -2.15823364 60.22311401 C-4.34255924 61.15115638 -6.53333561 62.06197799 -8.7265625 62.96875 C-9.38028336 63.24960953 -10.03400421 63.53046906 -10.70753479 63.81983948 C-15.03737215 65.58229896 -18.59259096 66.17693505 -23.25 65.75 C-26.25 63.8125 -26.25 63.8125 -28.25 60.75 C-28.12437437 52.86699175 -25.41083548 46.57307684 -22.25 39.4375 C-21.75814209 38.30481689 -21.26628418 37.17213379 -20.75952148 36.00512695 C-19.26799204 32.58151469 -17.75920122 29.16585046 -16.25 25.75 C-15.385878 23.76078168 -14.52254405 21.77122076 -13.66015625 19.78125 C-12.87898246 17.99939511 -12.09651054 16.21810855 -11.3125 14.4375 C-10.95994141 13.62692139 -10.60738281 12.81634277 -10.24414062 11.98120117 C-5.44327937 1.25614139 -5.44327937 1.25614139 0 0 Z " fill="#010101" transform="translate(135.25,227.25)"/>
<path d="M0 0 C0 0.33 0 0.66 0 1 C-18.48 1 -36.96 1 -56 1 C-52.83738714 -1.10840857 -51.96531537 -1.26596614 -48.33251953 -1.35058594 C-46.91557297 -1.39007355 -46.91557297 -1.39007355 -45.47000122 -1.43035889 C-44.45122894 -1.4481842 -43.43245667 -1.46600952 -42.3828125 -1.484375 C-41.33350555 -1.5084845 -40.28419861 -1.53259399 -39.20309448 -1.55743408 C-36.98233796 -1.60574952 -34.7614696 -1.64913704 -32.54052734 -1.68798828 C-29.14500282 -1.74963683 -25.75047358 -1.83273644 -22.35546875 -1.91796875 C-20.19794291 -1.96223576 -18.04039085 -2.00524597 -15.8828125 -2.046875 C-14.36072678 -2.08575836 -14.36072678 -2.08575836 -12.80789185 -2.12542725 C-11.85695648 -2.13914368 -10.90602112 -2.15286011 -9.92626953 -2.16699219 C-9.09370636 -2.18316589 -8.26114319 -2.1993396 -7.40335083 -2.21600342 C-4.64144832 -1.96777483 -2.51630885 -1.13591389 0 0 Z " fill="#0B0B0B" transform="translate(197,75)"/>
<path d="M0 0 C0.33 0.99 0.66 1.98 1 3 C-0.62339805 4.70884005 -2.29319053 6.37446717 -4 8 C-4.66 8 -5.32 8 -6 8 C-6 7.34 -6 6.68 -6 6 C-5.34 6 -4.68 6 -4 6 C-3.71125 5.38125 -3.4225 4.7625 -3.125 4.125 C-2 2 -2 2 0 0 Z " fill="#060606" transform="translate(224,50)"/>
<path d="M0 0 C0 2.66420516 -0.09162237 4.52260646 -1 7 C-1.99 7.33 -2.98 7.66 -4 8 C-4.33 7.01 -4.66 6.02 -5 5 C-3.35 3.35 -1.7 1.7 0 0 Z " fill="#090909" transform="translate(185,165)"/>
</svg>
