<?xml version="1.0" encoding="iso-8859-1"?>
<!-- Uploaded to: SVG Repo, www.svgrepo.com, Generator: SVG Repo Mixer Tools -->
<svg xmlns="http://www.w3.org/2000/svg" xmlns:xlink="http://www.w3.org/1999/xlink" version="1.1" id="Capa_1"  viewBox="0 0 470 470" xml:space="preserve" width="512" height="512">
<g>
	<polygon style="fill:#FD7555;" points="417.5,277.5 367.5,237.5 367.5,397.5 417.5,397.5  "/>
	<rect x="72.5" y="237.5" style="fill:#FDA162;" width="315" height="160"/>
	<polygon style="fill:#FE9F88;" points="72.5,142.5 72.5,202.5 387.5,277.5 417.5,277.5 417.5,202.5 417.5,142.5  "/>
	<path style="fill:#FEC8BB;" d="M366.781,182.5c-25.356,0-25.356,20-50.712,20c-25.36,0-25.36-20-50.719-20   c-25.356,0-25.356,20-50.712,20c-25.36,0-25.36-20-50.719-20c-25.356,0-25.356,20-50.712,20H72.5v75h315v-88.519   C382.401,185.395,376.427,182.5,366.781,182.5z"/>
	<path style="fill:#EF431D;" d="M157.5,37.5v90c24.853,0,45-20.147,45-45S182.353,37.5,157.5,37.5z"/>
	<path style="fill:#FD7555;" d="M172.5,82.5c0-24.853-6.716-45-15-45c-24.853,0-45,20.147-45,45s20.147,45,45,45   C165.784,127.5,172.5,107.353,172.5,82.5z"/>
	<path style="fill:#975D50;" d="M417.5,112.5l-20,30l20,30c16.569,0,30-13.431,30-30S434.069,112.5,417.5,112.5z"/>
	<path style="fill:#B1786B;" d="M82.5,112.5c-16.5,0-30,13.5-30,30v180c-16.569,0-30,13.431-30,30s13.431,30,30,30h30v-210h30.707   c25.356,0,25.356-20,50.712-20c25.359,0,25.359,20,50.719,20c25.356,0,25.356-20,50.712-20c19.048,0,23.79,11.282,35.716,16.899   c0,23.75,0,116.098,0,123.101c0,8.284,6.716,15,15,15s15-6.716,15-15c0-7.003,0-99.347,0-123.099   c11.928-5.616,16.668-16.901,35.716-16.901c25.359,0,25.359,20,50.719,20v-60H82.5z"/>
	<path style="fill:#FDCE6E;" d="M407.5,397.5l-51.667,65h30c16.5,0,34.269-12.807,39.487-28.46l12.18-36.54H407.5z"/>
	<path style="fill:#FDFA7B;" d="M32.5,397.5l12.18,36.54c5.218,15.653,22.987,28.46,39.487,28.46h271.667   c16.5,0,34.269-12.807,39.487-28.46l12.18-36.54H32.5z"/>
	<path style="fill:#FEFDCA;" d="M447.5,382.5h-425c-8.284,0-15,6.716-15,15s6.716,15,15,15h425c8.284,0,15-6.716,15-15   S455.784,382.5,447.5,382.5z"/>
	<circle cx="210" cy="240" r="7.5"/>
	<circle cx="350" cy="345" r="7.5"/>
	<circle cx="150" cy="315" r="7.5"/>
	<circle cx="120" cy="345" r="7.5"/>
	<path d="M447.5,375H425V179.245c17.096-3.484,30-18.635,30-36.745c0-20.678-16.822-37.5-37.5-37.5H204.929   C208.238,98.028,210,90.36,210,82.5c0-26.572-19.848-48.582-45.494-52.019c-1.493-10.673-6.375-20.53-14.129-28.285   c-2.93-2.928-7.678-2.928-10.607,0c-2.929,2.93-2.929,7.678,0,10.607c4.95,4.949,8.23,11.121,9.561,17.835   C124.249,34.575,105,56.33,105,82.5c0,4.143,3.357,7.5,7.5,7.5s7.5-3.357,7.5-7.5c0-20.678,16.822-37.5,37.5-37.5   S195,61.822,195,82.5c0,8.159-2.646,16.033-7.503,22.5H82.5C61.822,105,45,121.822,45,142.5v173.253   c-17.096,3.485-30,18.638-30,36.747c0,8.436,2.801,16.228,7.52,22.5C10.094,375,0,385.094,0,397.5S10.094,420,22.5,420h9.594   l5.47,16.411C43.843,455.246,64.313,470,84.167,470h301.666c19.854,0,40.324-14.754,46.603-33.589l5.47-16.411h9.594   c12.406,0,22.5-10.094,22.5-22.5S459.906,375,447.5,375z M90,375v-90h203.565v7.5c0,12.406,10.094,22.5,22.5,22.5   s22.5-10.094,22.5-22.5V285H410v90H90z M293.565,270H90v-90h23.206c15.28,0,23.442-6.438,30.001-11.611   c5.942-4.687,10.636-8.389,20.712-8.389c10.078,0,14.772,3.702,20.715,8.389c6.56,5.173,14.723,11.611,30.004,11.611   c15.28,0,23.442-6.438,30.001-11.611c5.942-4.687,10.635-8.389,20.711-8.389c10.079,0,14.773,3.702,20.717,8.389   c2.237,1.764,4.677,3.688,7.499,5.442V270z M410,270h-71.435v-96.167c2.824-1.755,5.265-3.68,7.503-5.444   c5.942-4.687,10.636-8.389,20.713-8.389c10.078,0,14.772,3.702,20.715,8.389c5.393,4.253,11.879,9.353,22.504,11.036V270z    M30,352.5c0-12.406,10.094-22.5,22.5-22.5c4.143,0,7.5-3.357,7.5-7.5v-180c0-12.406,10.094-22.5,22.5-22.5h335   c12.406,0,22.5,10.094,22.5,22.5S429.906,165,417.5,165c-10.078,0-14.772-3.702-20.715-8.389   c-6.56-5.173-14.723-11.611-30.004-11.611c-15.28,0-23.442,6.438-30.002,11.61c-2.929,2.311-5.696,4.492-8.908,6.004   c-2.628,1.237-4.306,3.881-4.306,6.786v123.1c0,4.136-3.364,7.5-7.5,7.5s-7.5-3.364-7.5-7.5V169.398   c0-2.904-1.677-5.548-4.305-6.785c-3.211-1.513-5.978-3.693-8.906-6.003c-6.56-5.173-14.724-11.61-30.005-11.61   c-15.279,0-23.441,6.438-30,11.611c-5.942,4.687-10.636,8.389-20.712,8.389c-10.078,0-14.772-3.702-20.715-8.389   C187.363,151.438,179.2,145,163.919,145c-15.28,0-23.442,6.438-30.001,11.611c-5.942,4.687-10.636,8.389-20.712,8.389H82.5   c-4.143,0-7.5,3.357-7.5,7.5V375H52.5C40.094,375,30,364.906,30,352.5z M447.5,405h-14.817c-0.039-0.001-0.078,0-0.116,0H97.5   c-4.143,0-7.5,3.357-7.5,7.5s3.357,7.5,7.5,7.5h324.594l-3.889,11.667C413.989,444.314,399.165,455,385.833,455H84.167   c-13.332,0-28.156-10.686-32.372-23.333L47.906,420H67.5c4.143,0,7.5-3.357,7.5-7.5s-3.357-7.5-7.5-7.5h-45   c-4.136,0-7.5-3.364-7.5-7.5s3.364-7.5,7.5-7.5h425c4.136,0,7.5,3.364,7.5,7.5S451.636,405,447.5,405z"/>
</g>















</svg>